<svg xmlns="http://www.w3.org/2000/svg" xmlns:xlink="http://www.w3.org/1999/xlink" width="371.488" height="133" viewBox="0 0 371.488 133">
  <defs>
    <filter id="Path_11964" x="0" y="0" width="371.488" height="133" filterUnits="userSpaceOnUse">
      <feOffset dy="6" input="SourceAlpha"/>
      <feGaussianBlur stdDeviation="12.5" result="blur"/>
      <feFlood flood-opacity="0.302"/>
      <feComposite operator="in" in2="blur"/>
      <feComposite in="SourceGraphic"/>
    </filter>
  </defs>
  <g id="Group_12247" data-name="Group 12247" transform="translate(-92.5 -4805.5)">
    <g transform="matrix(1, 0, 0, 1, 92.5, 4805.5)" filter="url(#Path_11964)">
      <path id="Path_11964-2" data-name="Path 11964" d="M28.4,0H268.088c15.685,0,28.4,12.984,28.4,29s-12.715,29-28.4,29H28.4C12.715,58,0,45.016,0,29S12.715,0,28.4,0Z" transform="translate(37.5 31.5)" fill="#242121"/>
    </g>
    <text id="Check_our_Portfolio" data-name="Check our Portfolio" transform="translate(298.244 4872.131)" fill="#f5f7fc" font-size="18" font-family="Montserrat-SemiBold, Montserrat" font-weight="600" letter-spacing="0.02em"><tspan x="-93" y="0">Check our Portfolio</tspan></text>
    <g id="phone-call_1_" data-name="phone-call (1)" transform="translate(150.749 4854)">
      <g id="Group_12475" data-name="Group 12475">
        <path id="Path_11944" data-name="Path 11944" d="M19.385,40.949a2.372,2.372,0,0,0-1.72-.789,2.453,2.453,0,0,0-1.741.784l-1.608,1.6c-.132-.071-.265-.137-.392-.2-.183-.092-.356-.178-.5-.27a17.48,17.48,0,0,1-4.189-3.817,10.312,10.312,0,0,1-1.374-2.168c.417-.382.8-.779,1.181-1.16.143-.143.285-.29.428-.433a2.335,2.335,0,0,0,0-3.522L8.076,29.584c-.158-.158-.321-.321-.473-.484-.305-.316-.626-.641-.957-.947a2.409,2.409,0,0,0-1.7-.748,2.493,2.493,0,0,0-1.73.748l-.01.01L1.47,29.91a3.724,3.724,0,0,0-1.1,2.367,8.922,8.922,0,0,0,.651,3.776A21.914,21.914,0,0,0,4.91,42.547a23.951,23.951,0,0,0,7.975,6.245,12.426,12.426,0,0,0,4.479,1.323c.107.005.219.01.321.01a3.835,3.835,0,0,0,2.937-1.262c.005-.01.015-.015.02-.025a11.571,11.571,0,0,1,.891-.921c.219-.209.443-.428.662-.657a2.539,2.539,0,0,0,.769-1.761,2.446,2.446,0,0,0-.784-1.746Zm1.822,5.359c-.005,0-.005.005,0,0-.2.214-.4.407-.621.621a13.382,13.382,0,0,0-.982,1.018,2.454,2.454,0,0,1-1.914.809c-.076,0-.158,0-.234-.005a11.039,11.039,0,0,1-3.97-1.191,22.608,22.608,0,0,1-7.512-5.883,20.662,20.662,0,0,1-3.664-6.1,7.267,7.267,0,0,1-.57-3.186,2.336,2.336,0,0,1,.7-1.512l1.736-1.736a1.157,1.157,0,0,1,.774-.361,1.089,1.089,0,0,1,.743.356l.015.015c.31.29.606.59.916.911.158.163.321.326.484.494L8.5,31.946a.971.971,0,0,1,0,1.578c-.148.148-.29.3-.438.438-.428.438-.835.845-1.277,1.242-.01.01-.02.015-.025.025a1.038,1.038,0,0,0-.265,1.155l.015.046a11.155,11.155,0,0,0,1.644,2.682l.005.005a18.68,18.68,0,0,0,4.52,4.112,6.947,6.947,0,0,0,.626.341c.183.092.356.178.5.27.02.01.041.025.061.036a1.1,1.1,0,0,0,.5.127,1.088,1.088,0,0,0,.774-.351l1.741-1.741a1.151,1.151,0,0,1,.769-.382,1.037,1.037,0,0,1,.733.372l.01.01,2.8,2.8A1.006,1.006,0,0,1,21.207,46.309Z" transform="translate(-0.344 -26.011)" fill="#ff4591" stroke="#ff4591" stroke-width="0.5"/>
        <path id="Path_11945" data-name="Path 11945" d="M245.509,87.288a6.55,6.55,0,0,1,5.334,5.334.683.683,0,0,0,.677.57.91.91,0,0,0,.117-.01.688.688,0,0,0,.565-.794,7.92,7.92,0,0,0-6.454-6.454.691.691,0,0,0-.794.56A.68.68,0,0,0,245.509,87.288Z" transform="translate(-232.495 -81.552)" fill="#821ffd" stroke="#821ffd" stroke-width="0.5"/>
        <path id="Path_11946" data-name="Path 11946" d="M260.2,10.638A13.042,13.042,0,0,0,249.573.011a.686.686,0,1,0-.224,1.354,11.649,11.649,0,0,1,9.5,9.5.683.683,0,0,0,.677.57.91.91,0,0,0,.117-.01A.674.674,0,0,0,260.2,10.638Z" transform="translate(-236.131 0)" fill="#821ffd" stroke="#821ffd" stroke-width="0.5"/>
      </g>
    </g>
  </g>
</svg>
