<svg xmlns="http://www.w3.org/2000/svg" width="414" height="58" viewBox="0 0 414 58">
  <g id="Group_12296" data-name="Group 12296" transform="translate(-130 -4837)">
    <path id="Path_11961" data-name="Path 11961" d="M29,0H385a29,29,0,0,1,0,58H29A29,29,0,0,1,29,0Z" transform="translate(130 4837)" fill="#ff4591"/>
    <text id="Low_on_Budget_CronJ_Can_delive" data-name="Low on Budget? CronJ Can delive" transform="translate(357 4872)" fill="#fff" font-size="18" font-family="Montserrat-SemiBold, Montserrat" font-weight="600" letter-spacing="0.02em"><tspan x="-161" y="0">Low on Budget? CronJ Can delive</tspan></text>
    <path id="mail_1_" data-name="mail (1)" d="M2.347,11.75h15.98a2.385,2.385,0,0,0,2.347-2.417V-1.833A2.385,2.385,0,0,0,18.327-4.25H2.347A2.385,2.385,0,0,0,0-1.833V9.333A2.385,2.385,0,0,0,2.347,11.75Zm0-.72a1.607,1.607,0,0,1-1-.348L6.128,5.649a.367.367,0,0,0,.089-.35.354.354,0,0,0-.251-.253.342.342,0,0,0-.338.1L.894,10.132a1.729,1.729,0,0,1-.195-.8V-1.04L8.823,6.044a2.288,2.288,0,0,0,3.035,0l8.117-7.089V9.333a1.726,1.726,0,0,1-.2.8l-4.763-4.99a.343.343,0,0,0-.493,0,.368.368,0,0,0-.005.508l4.805,5.035a1.607,1.607,0,0,1-1,.346Zm0-14.56h15.98a1.67,1.67,0,0,1,1.641,1.546L11.406,5.494a1.607,1.607,0,0,1-2.131,0L.706-1.977A1.67,1.67,0,0,1,2.347-3.53Zm0,0" transform="translate(151.958 4862.75)" fill="#fff" stroke="#fff" stroke-width="1"/>
  </g>
</svg>
